<svg width="39" height="22" viewBox="0 0 39 22" fill="none" xmlns="http://www.w3.org/2000/svg">
<path d="M8.65741 1.417C9.25541 1.417 9.66941 1.532 9.89941 1.762C10.1294 1.97667 10.2444 2.37533 10.2444 2.958V4.591C10.2444 5.12767 10.2061 5.61067 10.1294 6.04C10.0527 6.454 9.90707 6.845 9.69241 7.213C9.47774 7.56567 9.17874 7.91067 8.79541 8.248C8.41207 8.57 7.91374 8.915 7.30041 9.283C6.68707 9.63567 5.94341 10.0267 5.06941 10.456C4.19541 10.87 3.16807 11.3453 1.98741 11.882C1.81874 11.9587 1.64241 11.9663 1.45841 11.905C1.27441 11.8283 1.12874 11.6903 1.02141 11.491C0.929406 11.3223 0.891073 11.1383 0.906406 10.939C0.937073 10.7243 1.05974 10.571 1.27441 10.479C2.93041 9.72767 4.24141 9.10667 5.20741 8.616C6.18874 8.12533 6.92474 7.68067 7.41541 7.282C7.92141 6.868 8.24341 6.454 8.38141 6.04C8.51941 5.626 8.58841 5.12 8.58841 4.522V3.303C8.58841 3.01167 8.44274 2.866 8.15141 2.866H1.73441C1.51974 2.866 1.36641 2.797 1.27441 2.659C1.18241 2.521 1.13641 2.35233 1.13641 2.153C1.13641 1.93833 1.18241 1.762 1.27441 1.624C1.36641 1.486 1.51974 1.417 1.73441 1.417H8.65741ZM16.3164 0.197999C16.5311 0.197999 16.7227 0.251666 16.8914 0.359C17.0601 0.466332 17.1444 0.642666 17.1444 0.888V11.353C17.1444 11.5983 17.0601 11.7747 16.8914 11.882C16.7227 11.9893 16.5311 12.043 16.3164 12.043C16.1017 12.043 15.9101 11.9893 15.7414 11.882C15.5727 11.7747 15.4884 11.5983 15.4884 11.353V6.661H9.73841V5.212H15.4884V0.888C15.4884 0.642666 15.5727 0.466332 15.7414 0.359C15.9101 0.251666 16.1017 0.197999 16.3164 0.197999ZM15.5574 13.216C16.1554 13.216 16.5694 13.331 16.7994 13.561C17.0294 13.7757 17.1444 14.1743 17.1444 14.757V19.518C17.1444 20.1007 17.0294 20.4993 16.7994 20.714C16.5694 20.944 16.1554 21.059 15.5574 21.059H5.59841C5.00041 21.059 4.58641 20.944 4.35641 20.714C4.12641 20.4993 4.01141 20.1007 4.01141 19.518V14.757C4.01141 14.1743 4.12641 13.7757 4.35641 13.561C4.58641 13.331 5.00041 13.216 5.59841 13.216H15.5574ZM6.12741 14.642C5.83607 14.642 5.69041 14.7877 5.69041 15.079V19.196C5.69041 19.4873 5.83607 19.633 6.12741 19.633H15.0514C15.3427 19.633 15.4884 19.4873 15.4884 19.196V15.079C15.4884 14.7877 15.3427 14.642 15.0514 14.642H6.12741ZM26.095 1.026C26.3097 1.026 26.5013 1.07967 26.67 1.187C26.854 1.29433 26.946 1.47067 26.946 1.716V4.062C26.946 4.46067 26.9613 4.821 26.992 5.143C27.038 5.465 27.107 5.77167 27.199 6.063C27.3063 6.339 27.452 6.615 27.636 6.891C27.82 7.15167 28.0577 7.42767 28.349 7.719C28.809 8.16367 29.2307 8.56233 29.614 8.915C30.0127 9.26767 30.4037 9.61267 30.787 9.95C30.9557 10.088 31.0323 10.2567 31.017 10.456C31.017 10.6553 30.9557 10.8317 30.833 10.985C30.695 11.1537 30.5263 11.2533 30.327 11.284C30.1277 11.3147 29.936 11.2533 29.752 11.1C29.4453 10.8393 29.108 10.548 28.74 10.226C28.372 9.88867 28.004 9.54367 27.636 9.191C27.1147 8.70033 26.7467 8.30167 26.532 7.995C26.3173 7.673 26.187 7.397 26.141 7.167H26.118C26.0567 7.42767 25.9187 7.71133 25.704 8.018C25.5047 8.30933 25.1367 8.72333 24.6 9.26C24.1247 9.70467 23.6953 10.0957 23.312 10.433C22.9287 10.7703 22.5223 11.123 22.093 11.491C21.9243 11.629 21.7327 11.6827 21.518 11.652C21.3187 11.6213 21.15 11.5217 21.012 11.353C20.8893 11.1997 20.8203 11.0233 20.805 10.824C20.805 10.6093 20.8893 10.433 21.058 10.295C21.5027 9.927 21.9627 9.52833 22.438 9.099C22.9287 8.65433 23.4117 8.202 23.887 7.742C24.1783 7.466 24.4083 7.19767 24.577 6.937C24.761 6.661 24.899 6.37733 24.991 6.086C25.0983 5.79467 25.1673 5.49567 25.198 5.189C25.244 4.867 25.267 4.50667 25.267 4.108V1.716C25.267 1.47067 25.3513 1.29433 25.52 1.187C25.6887 1.07967 25.8803 1.026 26.095 1.026ZM37.802 0.197999C38.0167 0.197999 38.2007 0.251666 38.354 0.359C38.5227 0.466332 38.607 0.634999 38.607 0.864999V11.859C38.607 12.089 38.5227 12.2577 38.354 12.365C38.2007 12.457 38.0167 12.503 37.802 12.503C37.6027 12.503 37.4187 12.457 37.25 12.365C37.0967 12.2577 37.02 12.089 37.02 11.859V6.914H33.961V11.744C33.961 11.974 33.8767 12.1427 33.708 12.25C33.5547 12.342 33.3707 12.388 33.156 12.388C32.9567 12.388 32.7727 12.342 32.604 12.25C32.4507 12.1427 32.374 11.974 32.374 11.744V0.98C32.374 0.749999 32.4507 0.581332 32.604 0.473999C32.7727 0.366666 32.9567 0.312999 33.156 0.312999C33.3707 0.312999 33.5547 0.366666 33.708 0.473999C33.8767 0.581332 33.961 0.749999 33.961 0.98V5.465H37.02V0.864999C37.02 0.634999 37.0967 0.466332 37.25 0.359C37.4187 0.251666 37.6027 0.197999 37.802 0.197999ZM37.02 13.676C37.618 13.676 38.032 13.791 38.262 14.021C38.492 14.2357 38.607 14.6343 38.607 15.217V20.714C38.607 20.9593 38.515 21.1357 38.331 21.243C38.1623 21.3503 37.9707 21.404 37.756 21.404C37.5413 21.404 37.3497 21.3503 37.181 21.243C37.0123 21.1357 36.928 20.9593 36.928 20.714V15.539C36.928 15.263 36.7823 15.125 36.491 15.125H25.152C24.9527 15.125 24.807 15.056 24.715 14.918C24.623 14.78 24.577 14.6113 24.577 14.412C24.577 14.1973 24.623 14.021 24.715 13.883C24.807 13.745 24.9527 13.676 25.152 13.676H37.02Z" fill="white"/>
</svg>
