<svg width="61" height="22" viewBox="0 0 61 22" fill="none" xmlns="http://www.w3.org/2000/svg">
<path d="M7.96661 1.808C8.56461 1.808 8.97861 1.923 9.20861 2.153C9.43861 2.36767 9.55361 2.76633 9.55361 3.349V5.948C9.55361 6.592 9.51528 7.167 9.43861 7.673C9.36194 8.179 9.20861 8.662 8.97861 9.122C8.76394 9.56667 8.45728 10.0037 8.05861 10.433C7.67528 10.8623 7.17694 11.3223 6.56361 11.813C5.95028 12.2883 5.20661 12.8097 4.33261 13.377C3.45861 13.9443 2.43128 14.596 1.25061 15.332C1.08194 15.4393 0.897943 15.4623 0.69861 15.401C0.514609 15.3397 0.361276 15.2247 0.238609 15.056C0.115943 14.8873 0.0622761 14.6957 0.0776094 14.481C0.0929428 14.2663 0.19261 14.0977 0.37661 13.975C2.04794 12.963 3.38194 12.1197 4.37861 11.445C5.37528 10.7703 6.13428 10.157 6.65561 9.605C7.17694 9.03767 7.51428 8.478 7.66761 7.926C7.82094 7.35867 7.89761 6.67633 7.89761 5.879V3.694C7.89761 3.418 7.75194 3.28 7.46061 3.28H0.90561C0.690943 3.28 0.537609 3.211 0.44561 3.073C0.353609 2.91967 0.307609 2.74333 0.307609 2.544C0.307609 2.34467 0.353609 2.176 0.44561 2.038C0.537609 1.88467 0.690943 1.808 0.90561 1.808H7.96661ZM15.1886 0.197999C15.4033 0.197999 15.5949 0.251666 15.7636 0.359C15.9476 0.466332 16.0396 0.642666 16.0396 0.888V19.196C16.0396 19.4413 15.9476 19.6177 15.7636 19.725C15.5949 19.8323 15.4033 19.886 15.1886 19.886C14.9739 19.886 14.7823 19.8323 14.6136 19.725C14.4449 19.6177 14.3606 19.4413 14.3606 19.196V0.888C14.3606 0.642666 14.4449 0.466332 14.6136 0.359C14.7823 0.251666 14.9739 0.197999 15.1886 0.197999ZM25.8182 1.072C26.6922 1.072 27.4435 1.20233 28.0722 1.463C28.7162 1.72367 29.2529 2.07633 29.6822 2.521C30.1115 2.96567 30.4259 3.49467 30.6252 4.108C30.8399 4.706 30.9472 5.35767 30.9472 6.063C30.9472 6.753 30.8399 7.40467 30.6252 8.018C30.4259 8.616 30.1115 9.145 29.6822 9.605C29.2529 10.0497 28.7162 10.4023 28.0722 10.663C27.4435 10.9083 26.6922 11.031 25.8182 11.031C24.9442 11.031 24.1852 10.9083 23.5412 10.663C22.9125 10.4023 22.3835 10.0497 21.9542 9.605C21.5249 9.145 21.2029 8.616 20.9882 8.018C20.7889 7.40467 20.6892 6.753 20.6892 6.063C20.6892 5.35767 20.7889 4.706 20.9882 4.108C21.2029 3.49467 21.5249 2.96567 21.9542 2.521C22.3835 2.07633 22.9125 1.72367 23.5412 1.463C24.1852 1.20233 24.9442 1.072 25.8182 1.072ZM25.8182 2.521C25.1895 2.521 24.6529 2.62067 24.2082 2.82C23.7635 3.004 23.4032 3.257 23.1272 3.579C22.8512 3.901 22.6442 4.27667 22.5062 4.706C22.3835 5.13533 22.3222 5.58767 22.3222 6.063C22.3222 6.53833 22.3835 6.99067 22.5062 7.42C22.6442 7.84933 22.8512 8.225 23.1272 8.547C23.4032 8.869 23.7635 9.12967 24.2082 9.329C24.6529 9.513 25.1895 9.605 25.8182 9.605C26.4469 9.605 26.9835 9.513 27.4282 9.329C27.8729 9.12967 28.2332 8.869 28.5092 8.547C28.7852 8.225 28.9845 7.84933 29.1072 7.42C29.2452 6.99067 29.3142 6.53833 29.3142 6.063C29.3142 5.58767 29.2452 5.13533 29.1072 4.706C28.9845 4.27667 28.7852 3.901 28.5092 3.579C28.2332 3.257 27.8729 3.004 27.4282 2.82C26.9835 2.62067 26.4469 2.521 25.8182 2.521ZM36.2832 0.197999C36.4979 0.197999 36.6895 0.251666 36.8582 0.359C37.0269 0.466332 37.1112 0.642666 37.1112 0.888V11.813C37.1112 12.0583 37.0269 12.2347 36.8582 12.342C36.6895 12.4493 36.4979 12.503 36.2832 12.503C36.0685 12.503 35.8769 12.4493 35.7082 12.342C35.5395 12.2347 35.4552 12.0583 35.4552 11.813V6.776H29.7052V5.327H35.4552V0.888C35.4552 0.642666 35.5395 0.466332 35.7082 0.359C35.8769 0.251666 36.0685 0.197999 36.2832 0.197999ZM35.5242 13.676C36.1222 13.676 36.5362 13.791 36.7662 14.021C36.9962 14.2357 37.1112 14.6343 37.1112 15.217V20.714C37.1112 20.9593 37.0192 21.1357 36.8352 21.243C36.6665 21.3503 36.4749 21.404 36.2602 21.404C36.0455 21.404 35.8539 21.3503 35.6852 21.243C35.5165 21.1357 35.4322 20.9593 35.4322 20.714V15.539C35.4322 15.263 35.2865 15.125 34.9952 15.125H24.1392C23.9399 15.125 23.7942 15.056 23.7022 14.918C23.6102 14.78 23.5642 14.6113 23.5642 14.412C23.5642 14.1973 23.6102 14.021 23.7022 13.883C23.7942 13.745 23.9399 13.676 24.1392 13.676H35.5242ZM57.6308 1.095C57.8148 1.095 57.9528 1.164 58.0448 1.302C58.1368 1.44 58.1828 1.601 58.1828 1.785C58.1828 1.98433 58.1368 2.153 58.0448 2.291C57.9528 2.429 57.8148 2.498 57.6308 2.498H54.8708V3.28C54.8708 3.90867 54.9628 4.407 55.1468 4.775C55.3308 5.143 55.6068 5.47267 55.9748 5.764C56.3275 6.04 56.6955 6.32367 57.0788 6.615C57.4621 6.891 57.9221 7.20533 58.4588 7.558C58.6121 7.66533 58.6888 7.81867 58.6888 8.018C58.7041 8.202 58.6505 8.37833 58.5278 8.547C58.3898 8.71567 58.2288 8.81533 58.0448 8.846C57.8608 8.86133 57.6998 8.823 57.5618 8.731C57.1325 8.43967 56.7338 8.16367 56.3658 7.903C56.0131 7.64233 55.6528 7.36633 55.2848 7.075C54.8861 6.76833 54.6025 6.50767 54.4338 6.293C54.2805 6.063 54.1655 5.81767 54.0888 5.557H54.0658C53.9891 5.81767 53.8818 6.05533 53.7438 6.27C53.6211 6.46933 53.3911 6.72233 53.0538 7.029C52.8085 7.259 52.5401 7.49667 52.2488 7.742C51.9575 7.972 51.6815 8.179 51.4208 8.363C51.0068 8.65433 50.6771 8.8 50.4318 8.8C50.1865 8.8 49.8568 8.65433 49.4428 8.363C49.1821 8.179 48.9061 7.972 48.6148 7.742C48.3235 7.49667 48.0551 7.259 47.8098 7.029C47.4725 6.72233 47.2348 6.46933 47.0968 6.27C46.9741 6.05533 46.8745 5.81767 46.7978 5.557H46.7748C46.6981 5.81767 46.5755 6.063 46.4068 6.293C46.2535 6.523 45.9775 6.79133 45.5788 7.098C45.2108 7.38933 44.8428 7.66533 44.4748 7.926C44.1221 8.18667 43.7311 8.455 43.3018 8.731C43.1638 8.823 43.0028 8.86133 42.8188 8.846C42.6348 8.83067 42.4738 8.73867 42.3358 8.57C42.2131 8.40133 42.1518 8.21733 42.1518 8.018C42.1671 7.81867 42.2515 7.66533 42.4048 7.558C42.9415 7.20533 43.4015 6.891 43.7848 6.615C44.1681 6.32367 44.5361 6.04 44.8888 5.764C45.2568 5.47267 45.5328 5.143 45.7168 4.775C45.9008 4.407 45.9928 3.90867 45.9928 3.28V2.498H43.2328C43.0488 2.498 42.9108 2.429 42.8188 2.291C42.7268 2.153 42.6808 1.98433 42.6808 1.785C42.6808 1.601 42.7268 1.44 42.8188 1.302C42.9108 1.164 43.0488 1.095 43.2328 1.095H57.6308ZM47.6258 3.28C47.6258 3.90867 47.6871 4.39167 47.8098 4.729C47.9325 5.06633 48.1471 5.38833 48.4538 5.695C48.7145 5.95567 48.9828 6.201 49.2588 6.431C49.5348 6.64567 49.8031 6.86033 50.0638 7.075C50.2171 7.19767 50.3398 7.259 50.4318 7.259C50.5238 7.259 50.6465 7.19767 50.7998 7.075C51.0758 6.87567 51.3441 6.661 51.6048 6.431C51.8808 6.201 52.1491 5.95567 52.4098 5.695C52.7165 5.38833 52.9311 5.06633 53.0538 4.729C53.1765 4.39167 53.2378 3.90867 53.2378 3.28V2.498H47.6258V3.28ZM50.4318 8.915C50.6465 8.915 50.8381 8.96867 51.0068 9.076C51.1755 9.18333 51.2598 9.35967 51.2598 9.605V10.962H59.4478C59.6471 10.962 59.7928 11.031 59.8848 11.169C59.9768 11.307 60.0228 11.4757 60.0228 11.675C60.0228 11.8743 59.9768 12.043 59.8848 12.181C59.7928 12.319 59.6471 12.388 59.4478 12.388H41.4158C41.2165 12.388 41.0708 12.319 40.9788 12.181C40.8868 12.043 40.8408 11.8743 40.8408 11.675C40.8408 11.4757 40.8868 11.307 40.9788 11.169C41.0708 11.031 41.2165 10.962 41.4158 10.962H49.6038V9.605C49.6038 9.35967 49.6881 9.18333 49.8568 9.076C50.0255 8.96867 50.2171 8.915 50.4318 8.915ZM55.6988 14.55C56.2968 14.55 56.7108 14.665 56.9408 14.895C57.1708 15.1097 57.2858 15.5083 57.2858 16.091V20.806C57.2858 21.0513 57.2015 21.2277 57.0328 21.335C56.8641 21.4423 56.6725 21.496 56.4578 21.496C56.2431 21.496 56.0515 21.4423 55.8828 21.335C55.7141 21.2277 55.6298 21.0513 55.6298 20.806V16.39C55.6298 16.2213 55.5915 16.114 55.5148 16.068C55.4535 16.0067 55.3461 15.976 55.1928 15.976H43.8538C43.6698 15.976 43.5318 15.907 43.4398 15.769C43.3478 15.631 43.3018 15.4623 43.3018 15.263C43.3018 15.0637 43.3478 14.895 43.4398 14.757C43.5318 14.619 43.6698 14.55 43.8538 14.55H55.6988Z" fill="white"/>
</svg>
