<svg width="41" height="22" viewBox="0 0 41 22" fill="none" xmlns="http://www.w3.org/2000/svg">
<path d="M1.66541 1.141C1.88007 1.141 2.07174 1.19467 2.24041 1.302C2.40907 1.40933 2.49341 1.578 2.49341 1.808V4.637H8.68041V1.808C8.68041 1.578 8.76474 1.40933 8.93341 1.302C9.10207 1.19467 9.29374 1.141 9.50841 1.141C9.72307 1.141 9.91474 1.19467 10.0834 1.302C10.2521 1.40933 10.3364 1.578 10.3364 1.808V9.145C10.3364 9.72767 10.2214 10.134 9.99141 10.364C9.76141 10.5787 9.34741 10.686 8.74941 10.686H2.42441C1.82641 10.686 1.41241 10.5787 1.18241 10.364C0.952406 10.134 0.837406 9.72767 0.837406 9.145V1.808C0.837406 1.578 0.92174 1.40933 1.09041 1.302C1.25907 1.19467 1.45074 1.141 1.66541 1.141ZM2.49341 8.846C2.49341 9.01467 2.52407 9.12967 2.58541 9.191C2.64674 9.237 2.76174 9.26 2.93041 9.26H8.24341C8.41207 9.26 8.52707 9.237 8.58841 9.191C8.64974 9.12967 8.68041 9.01467 8.68041 8.846V6.063H2.49341V8.846ZM15.1664 0.197999C15.3811 0.197999 15.5727 0.251666 15.7414 0.359C15.9254 0.466332 16.0174 0.642666 16.0174 0.888V5.189H18.9384C19.1531 5.189 19.3064 5.26567 19.3984 5.419C19.4904 5.557 19.5364 5.73333 19.5364 5.948C19.5364 6.14733 19.4904 6.32367 19.3984 6.477C19.3064 6.615 19.1531 6.684 18.9384 6.684H16.0174V10.893C16.0174 11.1383 15.9254 11.3147 15.7414 11.422C15.5727 11.5293 15.3811 11.583 15.1664 11.583C14.9517 11.583 14.7601 11.5293 14.5914 11.422C14.4227 11.3147 14.3384 11.1383 14.3384 10.893V0.888C14.3384 0.642666 14.4227 0.466332 14.5914 0.359C14.7601 0.251666 14.9517 0.197999 15.1664 0.197999ZM4.03441 12.756C4.24907 12.756 4.44074 12.8097 4.60941 12.917C4.77807 13.0243 4.86241 13.193 4.86241 13.423V15.654H14.3614V13.423C14.3614 13.193 14.4457 13.0243 14.6144 12.917C14.7831 12.8097 14.9747 12.756 15.1894 12.756C15.4041 12.756 15.5957 12.8097 15.7644 12.917C15.9331 13.0243 16.0174 13.193 16.0174 13.423V19.518C16.0174 20.1007 15.9024 20.4993 15.6724 20.714C15.4424 20.944 15.0284 21.059 14.4304 21.059H4.79341C4.19541 21.059 3.78141 20.944 3.55141 20.714C3.32141 20.4993 3.20641 20.1007 3.20641 19.518V13.423C3.20641 13.193 3.29074 13.0243 3.45941 12.917C3.62807 12.8097 3.81974 12.756 4.03441 12.756ZM4.86241 19.219C4.86241 19.5103 5.00807 19.656 5.29941 19.656H13.9244C14.2157 19.656 14.3614 19.5103 14.3614 19.219V17.057H4.86241V19.219ZM27.13 0.888C27.3447 0.888 27.5363 0.941666 27.705 1.049C27.889 1.15633 27.981 1.33267 27.981 1.578V3.924C27.981 4.706 28.1113 5.38067 28.372 5.948C28.6327 6.5 29.0543 7.02133 29.637 7.512C30.2043 7.972 30.741 8.40133 31.247 8.8C31.753 9.18333 32.2207 9.52833 32.65 9.835C32.834 9.95767 32.9337 10.1263 32.949 10.341C32.9643 10.5403 32.9107 10.7243 32.788 10.893C32.6653 11.0463 32.512 11.1537 32.328 11.215C32.144 11.261 31.9523 11.215 31.753 11.077C31.4003 10.8317 30.9787 10.525 30.488 10.157C30.0127 9.77367 29.5143 9.375 28.993 8.961C28.4103 8.48567 27.9733 8.07167 27.682 7.719C27.3907 7.351 27.2143 7.052 27.153 6.822H27.13C27.0687 7.06733 26.8923 7.374 26.601 7.742C26.3097 8.11 25.8727 8.53167 25.29 9.007C24.7687 9.43633 24.2473 9.85033 23.726 10.249C23.22 10.6323 22.7063 11.008 22.185 11.376C21.9857 11.514 21.7863 11.56 21.587 11.514C21.403 11.468 21.2497 11.3607 21.127 11.192C21.0043 11.0387 20.943 10.8547 20.943 10.64C20.9583 10.4253 21.0657 10.249 21.265 10.111C21.863 9.68167 22.4303 9.26767 22.967 8.869C23.5037 8.455 24.0557 8.01033 24.623 7.535C25.2057 7.04433 25.6273 6.523 25.888 5.971C26.1487 5.419 26.279 4.752 26.279 3.97V1.578C26.279 1.33267 26.3633 1.15633 26.532 1.049C26.716 0.941666 26.9153 0.888 27.13 0.888ZM36.1 0.197999C36.3147 0.197999 36.5063 0.251666 36.675 0.359C36.859 0.466332 36.951 0.642666 36.951 0.888V5.419H39.872C40.0867 5.419 40.24 5.49567 40.332 5.649C40.424 5.787 40.47 5.96333 40.47 6.178C40.47 6.37733 40.424 6.55367 40.332 6.707C40.24 6.845 40.0867 6.914 39.872 6.914H36.951V12.089C36.951 12.3343 36.859 12.5107 36.675 12.618C36.5063 12.7253 36.3147 12.779 36.1 12.779C35.8853 12.779 35.6937 12.7253 35.525 12.618C35.3563 12.5107 35.272 12.3343 35.272 12.089V0.888C35.272 0.642666 35.3563 0.466332 35.525 0.359C35.6937 0.251666 35.8853 0.197999 36.1 0.197999ZM30.718 13.055C32.7727 13.055 34.352 13.4153 35.456 14.136C36.56 14.8413 37.112 15.884 37.112 17.264C37.112 18.644 36.56 19.6867 35.456 20.392C34.352 21.1127 32.7727 21.473 30.718 21.473C28.6633 21.473 27.084 21.1127 25.98 20.392C24.8913 19.6867 24.347 18.644 24.347 17.264C24.347 15.884 24.8913 14.8413 25.98 14.136C27.084 13.4153 28.6633 13.055 30.718 13.055ZM30.718 14.435C29.0927 14.435 27.8967 14.688 27.13 15.194C26.3787 15.7 26.003 16.39 26.003 17.264C26.003 18.138 26.3787 18.828 27.13 19.334C27.8967 19.84 29.0927 20.093 30.718 20.093C32.3433 20.093 33.5393 19.84 34.306 19.334C35.0727 18.828 35.456 18.138 35.456 17.264C35.456 16.39 35.0727 15.7 34.306 15.194C33.5393 14.688 32.3433 14.435 30.718 14.435Z" fill="white"/>
</svg>
