<svg width="139" height="46" viewBox="0 0 139 46" fill="none" xmlns="http://www.w3.org/2000/svg">
<path d="M14.5 3.45C15.2667 2.81666 16.15 2.36666 17.15 2.1C18.15 1.8 19.2 1.65 20.3 1.65C21.9667 1.65 23.2333 1.93333 24.1 2.5C24.9667 3.06667 25.4 3.95 25.4 5.15C25.3333 5.61667 25.2833 6.21667 25.25 6.95C25.2167 7.68333 25.2 8.38333 25.2 9.05V19.55C25.2 20.15 25.1 20.75 24.9 21.35C24.7 21.9167 24.25 22.4 23.55 22.8C22.8833 23.2 21.9 23.4833 20.6 23.65C19.3333 23.8167 17.6333 23.8 15.5 23.6H9.55C8.88333 23.7333 8.26667 23.8333 7.7 23.9C7.16667 23.9667 6.65 24 6.15 24C3.58333 24 2.03333 23.1 1.5 21.3C1.66667 20.8667 1.78333 20.4 1.85 19.9C1.91667 19.3667 1.95 18.8167 1.95 18.25V8.55C1.51667 8.18333 1.13333 7.61667 0.8 6.85C0.5 6.05 0.316667 5.36667 0.25 4.8C1.01667 4 1.95 3.43333 3.05 3.1C4.18333 2.73333 5.3 2.55 6.4 2.55C7.8 2.55 9.01667 2.85 10.05 3.45C11.1167 4.05 11.65 4.95 11.65 6.15V10.55H15.5V7.1C15.2333 6.6 15.0167 6.03333 14.85 5.4C14.6833 4.73333 14.5667 4.08333 14.5 3.45ZM27.25 28.25C28.85 27.2167 30.7667 26.7 33 26.7C34.6667 26.7 35.9333 26.9333 36.8 27.4C37.6667 27.8667 38.1 28.7 38.1 29.9C38.0333 30.3667 37.9833 30.95 37.95 31.65C37.9167 32.3167 37.9 32.9833 37.9 33.65V40.1C37.9 40.7 37.8 41.2833 37.6 41.85C37.4 42.45 36.95 42.95 36.25 43.35C35.5833 43.75 34.6 44.0333 33.3 44.2C32.0333 44.3667 30.3333 44.35 28.2 44.15H16.3C15.6333 44.2833 15.0167 44.3833 14.45 44.45C13.9167 44.5167 13.4 44.55 12.9 44.55C10.3333 44.55 8.78333 43.65 8.25 41.85C8.41667 41.4167 8.53333 40.9333 8.6 40.4C8.66667 39.9 8.7 39.3667 8.7 38.8V32.8C8.2 32.3333 7.76667 31.7667 7.4 31.1C7.06667 30.4 6.88333 29.6667 6.85 28.9C7.61667 28.3333 8.58333 27.9 9.75 27.6C10.9167 27.2667 12.05 27.1 13.15 27.1C14.55 27.1 15.7667 27.35 16.8 27.85C17.8667 28.35 18.4 29.2 18.4 30.4V33H28.2V31.75C27.7333 30.6167 27.4167 29.45 27.25 28.25ZM41.6 15.75C41.4333 15.2833 41.15 14.9833 40.75 14.85C40.35 14.7167 39.9833 14.65 39.65 14.65L38.15 14.75V20.75C38.15 21.55 37.9833 22.25 37.65 22.85C37.35 23.45 36.8167 23.9333 36.05 24.3C35.3167 24.6333 34.3333 24.85 33.1 24.95C31.8667 25.05 30.35 25 28.55 24.8V6.65C28.55 5.81667 28.5333 4.98333 28.5 4.15C28.4667 3.28333 28.3833 2.41667 28.25 1.55C29.1167 1.31666 30.0833 1.1 31.15 0.899998C32.2167 0.666666 33.35 0.549999 34.55 0.549999C35.35 0.549999 36.0333 0.649999 36.6 0.849998C37.1667 1.01666 37.6333 1.25 38 1.55C38.4 1.81667 38.7 2.11667 38.9 2.45C39.1333 2.75 39.2833 3.03333 39.35 3.3C38.95 3.9 38.65 4.66666 38.45 5.6C38.25 6.5 38.15 7.28333 38.15 7.95V11.05L42.95 10.85C43.6167 10.8167 44.0833 10.9833 44.35 11.35C44.6167 11.7167 44.75 12.1333 44.75 12.6C44.75 13.3667 44.4667 14.0833 43.9 14.75C43.3333 15.4167 42.5667 15.75 41.6 15.75ZM18.4 40.55H28.2V36.6H18.4V40.55ZM11.65 20H15.5V14.15H11.65V20ZM72.998 14.75C72.0314 14.75 71.2647 14.4333 70.698 13.8C70.1314 13.1667 69.848 12.4667 69.848 11.7C69.848 11.2333 69.9814 10.8333 70.248 10.5C70.5147 10.1333 70.9814 9.95 71.648 9.95H78.298V6.65C78.298 5.81667 78.2814 4.98333 78.248 4.15C78.2147 3.28333 78.1314 2.41667 77.998 1.55C78.8647 1.31666 79.8314 1.1 80.898 0.899998C81.9647 0.666666 83.098 0.549999 84.298 0.549999C85.098 0.549999 85.7814 0.649999 86.348 0.849998C86.9147 1.01666 87.3814 1.25 87.748 1.55C88.148 1.81667 88.448 2.11667 88.648 2.45C88.8814 2.75 89.0314 3.03333 89.098 3.3C88.698 3.9 88.398 4.66666 88.198 5.6C87.998 6.5 87.898 7.28333 87.898 7.95V26.45C87.898 27.15 87.798 27.7833 87.598 28.35C87.398 28.9167 86.9647 29.4 86.298 29.8C85.6314 30.1667 84.6647 30.4167 83.398 30.55C82.1314 30.65 80.4314 30.5833 78.298 30.35V13.65H75.198C74.8647 13.65 74.4314 13.7333 73.898 13.9C73.398 14.0333 73.098 14.3167 72.998 14.75ZM67.998 4.9C67.898 5.16666 67.8147 5.48333 67.748 5.85C67.6814 6.21667 67.6314 6.53333 67.598 6.8C67.4314 9.4 66.8647 11.8167 65.898 14.05C64.9314 16.2833 63.7647 18.25 62.398 19.95C61.0314 21.65 59.5647 23.0667 57.998 24.2C56.4647 25.3333 55.0314 26.1 53.698 26.5C53.298 26.6333 52.848 26.6833 52.348 26.65C51.848 26.5833 51.3147 26.4 50.748 26.1C50.1814 25.8 49.598 25.3667 48.998 24.8C48.4314 24.2 47.8647 23.4167 47.298 22.45C48.898 21.7167 50.3314 20.7167 51.598 19.45C52.8647 18.15 53.948 16.7833 54.848 15.35C55.748 13.8833 56.4314 12.4333 56.898 11C57.398 9.56667 57.648 8.31667 57.648 7.25C57.1814 6.78333 56.798 6.25 56.498 5.65C56.198 5.05 56.0147 4.46667 55.948 3.9C56.2147 3.46666 56.6814 3.06666 57.348 2.7C58.048 2.33333 58.8314 2.03333 59.698 1.8C60.5647 1.56667 61.4647 1.43333 62.398 1.4C63.3314 1.36666 64.198 1.46667 64.998 1.7C65.798 1.93333 66.4647 2.31667 66.998 2.85C67.5647 3.35 67.898 4.03333 67.998 4.9ZM85.698 34.65C86.6314 34.65 87.298 35 87.698 35.7C88.098 36.3667 88.298 37.2 88.298 38.2C88.298 38.9667 88.1814 39.7 87.948 40.4C87.748 41.1333 87.448 41.8833 87.048 42.65C86.1147 42.8833 85.1147 43.0833 84.048 43.25C83.0147 43.4167 81.9647 43.55 80.898 43.65C79.8647 43.7833 78.848 43.8667 77.848 43.9C76.8814 43.9667 75.9814 44 75.148 44C73.0814 44 71.2147 43.7333 69.548 43.2C67.9147 42.7 66.3647 41.9833 64.898 41.05C63.4314 40.15 62.0147 39.0833 60.648 37.85C59.3147 36.6167 57.948 35.2667 56.548 33.8C56.248 33.4333 56.098 32.9833 56.098 32.45C56.098 32.1167 56.1814 31.75 56.348 31.35C56.5147 30.95 56.7814 30.5833 57.148 30.25C57.548 29.9167 58.048 29.6333 58.648 29.4C59.2814 29.1667 60.0314 29.0333 60.898 29C61.498 29.9 62.148 30.7667 62.848 31.6C63.5814 32.4 64.3814 33.1167 65.248 33.75C66.148 34.3833 67.1147 34.8833 68.148 35.25C69.2147 35.6167 70.3814 35.8 71.648 35.8C72.848 35.8 74.048 35.75 75.248 35.65C76.448 35.5167 77.6314 35.3833 78.798 35.25C79.998 35.0833 81.1647 34.95 82.298 34.85C83.4647 34.7167 84.598 34.65 85.698 34.65ZM61.598 23.9C63.198 22.7 64.5314 21.3 65.598 19.7C66.6647 18.1 67.598 16.3833 68.398 14.55C69.2314 14.7833 70.0647 15.1 70.898 15.5C71.7647 15.9 72.5147 16.3667 73.148 16.9C73.8147 17.4333 74.3314 18.0167 74.698 18.65C75.098 19.25 75.2647 19.9 75.198 20.6C74.798 20.9 74.348 21.35 73.848 21.95C73.3814 22.5167 72.8647 23.1167 72.298 23.75C71.7647 24.3833 71.198 24.9833 70.598 25.55C69.998 26.1167 69.4147 26.5167 68.848 26.75C67.7814 27.2167 66.6147 27.2333 65.348 26.8C64.0814 26.3333 62.8314 25.3667 61.598 23.9ZM105.746 35.6C105.746 33.9667 106.113 32.55 106.846 31.35C107.613 30.15 108.663 29.1667 109.996 28.4C111.363 27.6333 112.963 27.0667 114.796 26.7C116.663 26.3 118.713 26.1 120.946 26.1C123.179 26.1 125.213 26.3 127.046 26.7C128.913 27.0667 130.513 27.6333 131.846 28.4C133.179 29.1667 134.213 30.15 134.946 31.35C135.713 32.55 136.096 33.9667 136.096 35.6C136.096 37.2667 135.713 38.7 134.946 39.9C134.213 41.1 133.179 42.0833 131.846 42.85C130.513 43.6167 128.913 44.1833 127.046 44.55C125.213 44.95 123.179 45.15 120.946 45.15C118.713 45.15 116.663 44.95 114.796 44.55C112.963 44.1833 111.363 43.6167 109.996 42.85C108.663 42.0833 107.613 41.1 106.846 39.9C106.113 38.7 105.746 37.2667 105.746 35.6ZM126.796 3.4C126.563 3.96667 126.413 4.61667 126.346 5.35C126.313 6.08333 126.296 6.88333 126.296 7.75V11.4H128.846V6.3C128.846 5.53333 128.829 4.75 128.796 3.95C128.763 3.15 128.696 2.33333 128.596 1.5C129.329 1.3 130.179 1.1 131.146 0.899998C132.113 0.666666 133.063 0.549999 133.996 0.549999C134.929 0.549999 135.779 0.733332 136.546 1.1C137.346 1.46666 137.946 2.15 138.346 3.15C137.979 3.71667 137.696 4.43333 137.496 5.3C137.296 6.16667 137.196 6.91667 137.196 7.55V21.55C137.196 22.15 137.113 22.7333 136.946 23.3C136.779 23.8333 136.413 24.3 135.846 24.7C135.279 25.0667 134.446 25.3333 133.346 25.5C132.246 25.6667 130.746 25.65 128.846 25.45V15H126.296V20.75C126.296 21.3167 126.213 21.8667 126.046 22.4C125.913 22.9333 125.563 23.4 124.996 23.8C124.463 24.1667 123.646 24.4333 122.546 24.6C121.479 24.7667 120.029 24.75 118.196 24.55V6.85C118.196 6.05 118.179 5.26667 118.146 4.5C118.113 3.7 118.046 2.88333 117.946 2.05C118.546 1.85 119.263 1.63333 120.096 1.4C120.929 1.16667 121.763 1.05 122.596 1.05C123.463 1.01667 124.263 1.16667 124.996 1.5C125.763 1.83333 126.363 2.46667 126.796 3.4ZM111.846 4.5C111.713 4.86667 111.613 5.35 111.546 5.95C111.479 6.51667 111.429 7.03333 111.396 7.5C111.329 8.76667 110.946 10.2833 110.246 12.05C109.579 13.7833 108.729 15.5 107.696 17.2C106.663 18.8667 105.529 20.3833 104.296 21.75C103.063 23.0833 101.846 24 100.646 24.5C100.279 24.6667 99.8794 24.7667 99.4461 24.8C99.0128 24.8333 98.5128 24.7667 97.9461 24.6C97.4128 24.4 96.8294 24.05 96.1961 23.55C95.5628 23.05 94.8794 22.35 94.1461 21.45C96.8461 19.15 98.9294 16.7167 100.396 14.15C101.863 11.55 102.613 9 102.646 6.5C102.346 5.93333 102.096 5.4 101.896 4.9C101.696 4.36666 101.563 3.8 101.496 3.2C101.863 2.83333 102.363 2.51667 102.996 2.25C103.663 1.95 104.363 1.73333 105.096 1.6C105.863 1.46666 106.646 1.41666 107.446 1.45C108.246 1.45 108.963 1.56667 109.596 1.8C110.229 2.03333 110.763 2.36667 111.196 2.8C111.629 3.23333 111.846 3.8 111.846 4.5ZM115.396 35.6C115.396 36.5333 115.546 37.3667 115.846 38.1C116.179 38.8333 116.596 39.45 117.096 39.95C117.629 40.45 118.229 40.8333 118.896 41.1C119.563 41.3667 120.246 41.5 120.946 41.5C121.646 41.5 122.329 41.3667 122.996 41.1C123.663 40.8333 124.246 40.45 124.746 39.95C125.246 39.45 125.646 38.8333 125.946 38.1C126.279 37.3667 126.446 36.5333 126.446 35.6C126.446 34.6667 126.279 33.8333 125.946 33.1C125.646 32.3667 125.246 31.75 124.746 31.25C124.246 30.75 123.663 30.3833 122.996 30.15C122.329 29.8833 121.646 29.75 120.946 29.75C120.246 29.75 119.563 29.8833 118.896 30.15C118.229 30.3833 117.629 30.75 117.096 31.25C116.596 31.75 116.179 32.3667 115.846 33.1C115.546 33.8333 115.396 34.6667 115.396 35.6ZM105.446 22.5C106.113 21.7667 106.713 21.0833 107.246 20.45C107.813 19.7833 108.313 19.1167 108.746 18.45C109.213 17.7833 109.629 17.0667 109.996 16.3C110.396 15.5333 110.763 14.6833 111.096 13.75C111.796 13.9167 112.529 14.15 113.296 14.45C114.063 14.75 114.746 15.1333 115.346 15.6C115.946 16.0333 116.429 16.5667 116.796 17.2C117.163 17.8 117.313 18.4833 117.246 19.25C116.946 19.4167 116.563 19.7833 116.096 20.35C115.663 20.9167 115.163 21.5167 114.596 22.15C114.063 22.7833 113.513 23.3833 112.946 23.95C112.413 24.4833 111.896 24.8167 111.396 24.95C110.429 25.25 109.529 25.2167 108.696 24.85C107.863 24.45 106.779 23.6667 105.446 22.5Z" fill="white"/>
</svg>
