<svg width="81" height="22" viewBox="0 0 81 22" fill="none" xmlns="http://www.w3.org/2000/svg">
<path d="M6.39563 1.279C6.61029 1.279 6.80196 1.33267 6.97063 1.44C7.15463 1.54733 7.24663 1.73133 7.24663 1.992V5.672C7.24663 6.178 7.27729 6.63033 7.33863 7.029C7.39996 7.42767 7.50729 7.811 7.66063 8.179C7.81396 8.53167 8.00563 8.87667 8.23563 9.214C8.48096 9.55133 8.78763 9.91167 9.15563 10.295C10.183 11.3683 11.1566 12.319 12.0766 13.147C12.2453 13.285 12.3143 13.4613 12.2836 13.676C12.253 13.8753 12.1686 14.0517 12.0306 14.205C11.908 14.3277 11.747 14.412 11.5476 14.458C11.3483 14.4887 11.1643 14.4197 10.9956 14.251C10.5816 13.883 10.16 13.492 9.73063 13.078C9.30129 12.6487 8.83363 12.1733 8.32763 11.652C7.95963 11.284 7.66063 10.962 7.43063 10.686C7.20063 10.41 7.01663 10.1723 6.87863 9.973C6.74063 9.75833 6.63329 9.57433 6.55663 9.421C6.49529 9.26767 6.44929 9.12967 6.41863 9.007H6.39563C6.36496 9.145 6.31129 9.29067 6.23463 9.444C6.17329 9.59733 6.06596 9.78133 5.91263 9.996C5.77463 10.1953 5.59063 10.433 5.36063 10.709C5.13063 10.985 4.83163 11.307 4.46363 11.675C3.97296 12.1963 3.48996 12.687 3.01463 13.147C2.55463 13.5917 2.05629 14.0593 1.51963 14.55C1.33563 14.7187 1.14396 14.78 0.944625 14.734C0.745292 14.688 0.576625 14.596 0.438625 14.458C0.300625 14.2893 0.223958 14.113 0.208625 13.929C0.208625 13.7297 0.292958 13.5533 0.461625 13.4C1.58096 12.3727 2.63896 11.3377 3.63563 10.295C4.00363 9.91167 4.30263 9.55133 4.53263 9.214C4.77796 8.87667 4.97729 8.53167 5.13063 8.179C5.28396 7.811 5.39129 7.42767 5.45263 7.029C5.51396 6.63033 5.54463 6.178 5.54463 5.672V1.992C5.54463 1.73133 5.62896 1.54733 5.79763 1.44C5.98163 1.33267 6.18096 1.279 6.39563 1.279ZM15.3656 0.197999C15.5803 0.197999 15.772 0.251666 15.9406 0.359C16.1246 0.466332 16.2166 0.642666 16.2166 0.888V7.305H19.1376C19.3523 7.305 19.5056 7.38167 19.5976 7.535C19.6896 7.673 19.7356 7.84167 19.7356 8.041C19.7356 8.25567 19.6896 8.43967 19.5976 8.593C19.5056 8.731 19.3523 8.8 19.1376 8.8H16.2166V19.196C16.2166 19.4413 16.1246 19.6177 15.9406 19.725C15.772 19.8323 15.5803 19.886 15.3656 19.886C15.151 19.886 14.9593 19.8323 14.7906 19.725C14.622 19.6177 14.5376 19.4413 14.5376 19.196V0.888C14.5376 0.642666 14.622 0.466332 14.7906 0.359C14.9593 0.251666 15.151 0.197999 15.3656 0.197999ZM30.6642 0.681C32.8569 0.681 34.5359 0.987666 35.7012 1.601C36.8819 2.21433 37.4722 3.165 37.4722 4.453C37.4722 5.741 36.8819 6.69167 35.7012 7.305C34.5359 7.91833 32.8569 8.225 30.6642 8.225C28.4716 8.225 26.7849 7.91833 25.6042 7.305C24.4389 6.69167 23.8562 5.741 23.8562 4.453C23.8562 3.165 24.4389 2.21433 25.6042 1.601C26.7849 0.987666 28.4716 0.681 30.6642 0.681ZM30.6642 2.061C28.9009 2.061 27.6052 2.268 26.7772 2.682C25.9492 3.08067 25.5352 3.671 25.5352 4.453C25.5352 5.235 25.9492 5.833 26.7772 6.247C27.6052 6.64567 28.9009 6.845 30.6642 6.845C32.4276 6.845 33.7232 6.64567 34.5512 6.247C35.3792 5.833 35.7932 5.235 35.7932 4.453C35.7932 3.671 35.3792 3.08067 34.5512 2.682C33.7232 2.268 32.4276 2.061 30.6642 2.061ZM28.1802 10.778H33.1482V7.19H34.7582V10.778H39.6802C39.8796 10.778 40.0252 10.847 40.1172 10.985C40.2092 11.123 40.2552 11.2917 40.2552 11.491C40.2552 11.6903 40.2092 11.859 40.1172 11.997C40.0252 12.135 39.8796 12.204 39.6802 12.204H21.6482C21.4489 12.204 21.3032 12.135 21.2112 11.997C21.1192 11.859 21.0732 11.6903 21.0732 11.491C21.0732 11.2917 21.1192 11.123 21.2112 10.985C21.3032 10.847 21.4489 10.778 21.6482 10.778H26.5702V7.19H28.1802V10.778ZM30.6642 14.021C32.8569 14.021 34.5436 14.3277 35.7242 14.941C36.9202 15.5543 37.5182 16.505 37.5182 17.793C37.5182 19.081 36.9202 20.0317 35.7242 20.645C34.5436 21.2583 32.8569 21.565 30.6642 21.565C28.4716 21.565 26.7772 21.2583 25.5812 20.645C24.4006 20.0317 23.8102 19.081 23.8102 17.793C23.8102 16.505 24.4006 15.5543 25.5812 14.941C26.7772 14.3277 28.4716 14.021 30.6642 14.021ZM30.6642 15.378C28.9009 15.378 27.5976 15.585 26.7542 15.999C25.9109 16.413 25.4892 17.011 25.4892 17.793C25.4892 18.575 25.9109 19.173 26.7542 19.587C27.5976 20.001 28.9009 20.208 30.6642 20.208C32.4276 20.208 33.7309 20.001 34.5742 19.587C35.4176 19.173 35.8392 18.575 35.8392 17.793C35.8392 17.011 35.4176 16.413 34.5742 15.999C33.7309 15.585 32.4276 15.378 30.6642 15.378ZM53.4148 1.854C53.6141 1.854 53.7598 1.923 53.8518 2.061C53.9438 2.199 53.9898 2.37533 53.9898 2.59C53.9898 2.78933 53.9438 2.96567 53.8518 3.119C53.7598 3.257 53.6141 3.326 53.4148 3.326H49.1598V5.925C49.1598 6.431 49.1828 6.891 49.2288 7.305C49.2901 7.70367 49.3898 8.07933 49.5278 8.432C49.6658 8.76933 49.8498 9.10667 50.0798 9.444C50.3251 9.78133 50.6318 10.134 50.9998 10.502C51.5211 11.0233 52.0348 11.5293 52.5408 12.02C53.0468 12.4953 53.5068 12.9093 53.9208 13.262C54.0895 13.4153 54.1585 13.5993 54.1278 13.814C54.1125 14.0133 54.0435 14.182 53.9208 14.32C53.7675 14.458 53.5911 14.55 53.3918 14.596C53.2078 14.6267 53.0315 14.5577 52.8628 14.389C52.4795 14.067 52.0655 13.6913 51.6208 13.262C51.1761 12.8327 50.6931 12.3573 50.1718 11.836C49.8038 11.468 49.5048 11.1537 49.2748 10.893C49.0601 10.6323 48.8838 10.4023 48.7458 10.203C48.6231 10.0037 48.5311 9.835 48.4698 9.697C48.4085 9.54367 48.3625 9.40567 48.3318 9.283H48.3088C48.2781 9.421 48.2321 9.56667 48.1708 9.72C48.1095 9.858 48.0098 10.0267 47.8718 10.226C47.7491 10.4253 47.5728 10.6553 47.3428 10.916C47.1128 11.1767 46.8215 11.491 46.4688 11.859C45.9475 12.3803 45.4491 12.871 44.9738 13.331C44.4985 13.7757 43.9925 14.228 43.4558 14.688C43.2718 14.8567 43.0801 14.918 42.8808 14.872C42.6815 14.826 42.5205 14.734 42.3978 14.596C42.2598 14.4273 42.1831 14.2433 42.1678 14.044C42.1525 13.8447 42.2291 13.676 42.3978 13.538C42.9805 13.032 43.5325 12.5337 44.0538 12.043C44.5751 11.537 45.0965 11.0233 45.6178 10.502C45.9858 10.134 46.2848 9.78133 46.5148 9.444C46.7601 9.10667 46.9518 8.76933 47.0898 8.432C47.2278 8.07933 47.3198 7.70367 47.3658 7.305C47.4271 6.891 47.4578 6.431 47.4578 5.925V3.326H43.1108C42.9115 3.326 42.7658 3.257 42.6738 3.119C42.5818 2.96567 42.5358 2.78933 42.5358 2.59C42.5358 2.37533 42.5818 2.199 42.6738 2.061C42.7658 1.923 42.9115 1.854 43.1108 1.854H53.4148ZM57.2328 0.197999C57.4475 0.197999 57.6391 0.251666 57.8078 0.359C57.9918 0.466332 58.0838 0.642666 58.0838 0.888V7.305H61.0048C61.2195 7.305 61.3728 7.38167 61.4648 7.535C61.5568 7.673 61.6028 7.84167 61.6028 8.041C61.6028 8.25567 61.5568 8.43967 61.4648 8.593C61.3728 8.731 61.2195 8.8 61.0048 8.8H58.0838V19.196C58.0838 19.4413 57.9918 19.6177 57.8078 19.725C57.6391 19.8323 57.4475 19.886 57.2328 19.886C57.0181 19.886 56.8265 19.8323 56.6578 19.725C56.4891 19.6177 56.4048 19.4413 56.4048 19.196V0.888C56.4048 0.642666 56.4891 0.466332 56.6578 0.359C56.8265 0.251666 57.0181 0.197999 57.2328 0.197999ZM71.8414 1.371C72.4394 1.371 72.8534 1.486 73.0834 1.716C73.3134 1.93067 73.4284 2.32933 73.4284 2.912V9.214C73.4284 9.79667 73.3134 10.203 73.0834 10.433C72.8534 10.6477 72.4394 10.755 71.8414 10.755H65.7234C65.1254 10.755 64.7114 10.6477 64.4814 10.433C64.2514 10.203 64.1364 9.79667 64.1364 9.214V2.912C64.1364 2.32933 64.2514 1.93067 64.4814 1.716C64.7114 1.486 65.1254 1.371 65.7234 1.371H71.8414ZM66.2294 2.82C66.0607 2.82 65.9457 2.85067 65.8844 2.912C65.8231 2.958 65.7924 3.06533 65.7924 3.234V8.869C65.7924 9.16033 65.9381 9.306 66.2294 9.306H71.3584C71.6497 9.306 71.7954 9.16033 71.7954 8.869V3.234C71.7954 3.06533 71.7571 2.958 71.6804 2.912C71.6191 2.85067 71.5117 2.82 71.3584 2.82H66.2294ZM79.3164 0.197999C79.5311 0.197999 79.7227 0.251666 79.8914 0.359C80.0601 0.466332 80.1444 0.642666 80.1444 0.888V12.089C80.1444 12.3343 80.0601 12.5107 79.8914 12.618C79.7227 12.7253 79.5311 12.779 79.3164 12.779C79.1017 12.779 78.9101 12.7253 78.7414 12.618C78.5727 12.5107 78.4884 12.3343 78.4884 12.089V8.869H75.1994C75.0001 8.869 74.8544 8.8 74.7624 8.662C74.6704 8.524 74.6244 8.34767 74.6244 8.133C74.6244 7.93367 74.6704 7.765 74.7624 7.627C74.8544 7.489 75.0001 7.42 75.1994 7.42H78.4884V4.798H75.1994C75.0001 4.798 74.8544 4.729 74.7624 4.591C74.6704 4.43767 74.6244 4.26133 74.6244 4.062C74.6244 3.86267 74.6704 3.694 74.7624 3.556C74.8544 3.418 75.0001 3.349 75.1994 3.349H78.4884V0.888C78.4884 0.642666 78.5727 0.466332 78.7414 0.359C78.9101 0.251666 79.1017 0.197999 79.3164 0.197999ZM73.7504 13.055C75.8511 13.055 77.4687 13.4153 78.6034 14.136C79.7381 14.8413 80.3054 15.884 80.3054 17.264C80.3054 18.644 79.7381 19.6867 78.6034 20.392C77.4687 21.1127 75.8511 21.473 73.7504 21.473C71.6497 21.473 70.0321 21.1127 68.8974 20.392C67.7781 19.6867 67.2184 18.644 67.2184 17.264C67.2184 15.884 67.7781 14.8413 68.8974 14.136C70.0321 13.4153 71.6497 13.055 73.7504 13.055ZM73.7504 14.435C72.0791 14.435 70.8447 14.688 70.0474 15.194C69.2654 15.7 68.8744 16.39 68.8744 17.264C68.8744 18.138 69.2654 18.828 70.0474 19.334C70.8447 19.84 72.0791 20.093 73.7504 20.093C75.4217 20.093 76.6561 19.84 77.4534 19.334C78.2507 18.828 78.6494 18.138 78.6494 17.264C78.6494 16.39 78.2507 15.7 77.4534 15.194C76.6561 14.688 75.4217 14.435 73.7504 14.435Z" fill="white"/>
</svg>
